{
    "asset" : {
        "generator" : "Khronos glTF Blender I/O v1.6.16",
        "version" : "2.0"
    },
    "scene" : 0,
    "scenes" : [
        {
            "name" : "Scene",
            "nodes" : [
                0
            ]
        }
    ],
    "nodes" : [
        {
            "mesh" : 0,
            "name" : "Mesh_14",
            "rotation" : [
                0.4381113052368164,
                -0.10267810523509979,
                0.37238967418670654,
                0.811690628528595
            ],
            "scale" : [
                0.31096118688583374,
                0.31096118688583374,
                0.31096118688583374
            ],
            "translation" : [
                -0.035968147218227386,
                1.773836612701416,
                3.41091251373291
            ]
        }
    ],
    "meshes" : [
        {
            "name" : "Mesh_14",
            "primitives" : [
                {
                    "attributes" : {
                        "POSITION" : 0
                    },
                    "indices" : 1
                }
            ]
        }
    ],
    "accessors" : [
        {
            "bufferView" : 0,
            "componentType" : 5126,
            "count" : 747243,
            "max" : [
                9.522758483886719,
                20.07455062866211,
                14.125932693481445
            ],
            "min" : [
                -22.36936378479004,
                -28.244142532348633,
                -17.46382713317871
            ],
            "type" : "VEC3"
        },
        {
            "bufferView" : 1,
            "componentType" : 5125,
            "count" : 3470916,
            "type" : "SCALAR"
        }
    ],
    "bufferViews" : [
        {
            "buffer" : 0,
            "byteLength" : 8966916,
            "byteOffset" : 0
        },
        {
            "buffer" : 0,
            "byteLength" : 13883664,
            "byteOffset" : 8966916
        }
    ],
    "buffers" : [
        {
            "byteLength" : 22850580,
            "uri" : "contact.bin"
        }
    ]
}
