{
    "asset" : {
        "generator" : "Khronos glTF Blender I/O v1.6.16",
        "version" : "2.0"
    },
    "scene" : 0,
    "scenes" : [
        {
            "name" : "Scene",
            "nodes" : [
                0
            ]
        }
    ],
    "nodes" : [
        {
            "mesh" : 0,
            "name" : "Mesh_14",
            "rotation" : [
                0.4381113052368164,
                -0.10267810523509979,
                0.37238967418670654,
                0.811690628528595
            ],
            "scale" : [
                0.31096118688583374,
                0.31096118688583374,
                0.31096118688583374
            ],
            "translation" : [
                -0.035968147218227386,
                1.773836612701416,
                3.41091251373291
            ]
        }
    ],
    "meshes" : [
        {
            "name" : "Mesh_14",
            "primitives" : [
                {
                    "attributes" : {
                        "POSITION" : 0,
                        "NORMAL" : 1,
                        "TEXCOORD_0" : 2,
                        "TEXCOORD_1" : 3,
                        "TEXCOORD_2" : 4,
                        "TEXCOORD_3" : 5,
                        "TEXCOORD_4" : 6,
                        "TEXCOORD_5" : 7,
                        "TEXCOORD_6" : 8,
                        "TEXCOORD_7" : 9
                    },
                    "indices" : 10
                }
            ]
        }
    ],
    "accessors" : [
        {
            "bufferView" : 0,
            "componentType" : 5126,
            "count" : 782842,
            "max" : [
                9.522758483886719,
                20.07455062866211,
                14.125932693481445
            ],
            "min" : [
                -22.36936378479004,
                -28.244142532348633,
                -17.46382713317871
            ],
            "type" : "VEC3"
        },
        {
            "bufferView" : 1,
            "componentType" : 5126,
            "count" : 782842,
            "type" : "VEC3"
        },
        {
            "bufferView" : 2,
            "componentType" : 5126,
            "count" : 782842,
            "type" : "VEC2"
        },
        {
            "bufferView" : 3,
            "componentType" : 5126,
            "count" : 782842,
            "type" : "VEC2"
        },
        {
            "bufferView" : 4,
            "componentType" : 5126,
            "count" : 782842,
            "type" : "VEC2"
        },
        {
            "bufferView" : 5,
            "componentType" : 5126,
            "count" : 782842,
            "type" : "VEC2"
        },
        {
            "bufferView" : 6,
            "componentType" : 5126,
            "count" : 782842,
            "type" : "VEC2"
        },
        {
            "bufferView" : 7,
            "componentType" : 5126,
            "count" : 782842,
            "type" : "VEC2"
        },
        {
            "bufferView" : 8,
            "componentType" : 5126,
            "count" : 782842,
            "type" : "VEC2"
        },
        {
            "bufferView" : 9,
            "componentType" : 5126,
            "count" : 782842,
            "type" : "VEC2"
        },
        {
            "bufferView" : 10,
            "componentType" : 5125,
            "count" : 3470916,
            "type" : "SCALAR"
        }
    ],
    "bufferViews" : [
        {
            "buffer" : 0,
            "byteLength" : 9394104,
            "byteOffset" : 0
        },
        {
            "buffer" : 0,
            "byteLength" : 9394104,
            "byteOffset" : 9394104
        },
        {
            "buffer" : 0,
            "byteLength" : 6262736,
            "byteOffset" : 18788208
        },
        {
            "buffer" : 0,
            "byteLength" : 6262736,
            "byteOffset" : 25050944
        },
        {
            "buffer" : 0,
            "byteLength" : 6262736,
            "byteOffset" : 31313680
        },
        {
            "buffer" : 0,
            "byteLength" : 6262736,
            "byteOffset" : 37576416
        },
        {
            "buffer" : 0,
            "byteLength" : 6262736,
            "byteOffset" : 43839152
        },
        {
            "buffer" : 0,
            "byteLength" : 6262736,
            "byteOffset" : 50101888
        },
        {
            "buffer" : 0,
            "byteLength" : 6262736,
            "byteOffset" : 56364624
        },
        {
            "buffer" : 0,
            "byteLength" : 6262736,
            "byteOffset" : 62627360
        },
        {
            "buffer" : 0,
            "byteLength" : 13883664,
            "byteOffset" : 68890096
        }
    ],
    "buffers" : [
        {
            "byteLength" : 82773760,
            "uri" : "contact.bin"
        }
    ]
}
