{
  "accessors": [
    {
      "bufferView": 2,
      "componentType": 5126,
      "count": 24,
      "max": [
        3.2081029415130615,
        1.9980319738388062,
        4.0743179321289062
      ],
      "min": [
        -2.9827079772949219,
        1.975011944770813,
        0.41192299127578735
      ],
      "type": "VEC3"
    },
    {
      "bufferView": 2,
      "byteOffset": 288,
      "componentType": 5126,
      "count": 24,
      "max": [
        3.0000007882335922e-06,
        -0.99998021125793457,
        0.0062970016151666641
      ],
      "min": [
        -3.0000007882335922e-06,
        -0.99998021125793457,
        0.0062890015542507172
      ],
      "type": "VEC3"
    },
    {
      "bufferView": 1,
      "componentType": 5126,
      "count": 24,
      "max": [
        0.96965700387954712,
        0.46926900744438171
      ],
      "min": [
        0.62974697351455688,
        0.26818299293518066
      ],
      "type": "VEC2"
    },
    {
      "bufferView": 0,
      "componentType": 5125,
      "count": 66,
      "max": [
        23
      ],
      "min": [
        0
      ],
      "type": "SCALAR"
    },
    {
      "bufferView": 2,
      "byteOffset": 576,
      "componentType": 5126,
      "count": 121,
      "max": [
        3.2770071029663086,
        1.9601019620895386,
        4.0931072235107422
      ],
      "min": [
        -3.0814459323883057,
        1.9601019620895386,
        0.31643998622894287
      ],
      "type": "VEC3"
    },
    {
      "bufferView": 2,
      "byteOffset": 2028,
      "componentType": 5126,
      "count": 121,
      "max": [
        0,
        -1,
        0
      ],
      "min": [
        0,
        -1,
        0
      ],
      "type": "VEC3"
    },
    {
      "bufferView": 1,
      "byteOffset": 192,
      "componentType": 5126,
      "count": 121,
      "max": [
        0.9637179970741272,
        0.25808098912239075
      ],
      "min": [
        0.61460298299789429,
        0.050719998776912689
      ],
      "type": "VEC2"
    },
    {
      "bufferView": 0,
      "byteOffset": 264,
      "componentType": 5125,
      "count": 600,
      "max": [
        120
      ],
      "min": [
        0
      ],
      "type": "SCALAR"
    },
    {
      "bufferView": 2,
      "byteOffset": 3480,
      "componentType": 5126,
      "count": 722,
      "max": [
        3.4361920356750488,
        2.0037710666656494,
        4.2579340934753418
      ],
      "min": [
        -3.2107970714569092,
        1.8078830242156982,
        0.14090800285339355
      ],
      "type": "VEC3"
    },
    {
      "bufferView": 2,
      "byteOffset": 12144,
      "componentType": 5126,
      "count": 722,
      "max": [
        1,
        0.025605004280805588,
        0.99980121850967407
      ],
      "min": [
        -1,
        -0.999980628490448,
        -0.99979865550994873
      ],
      "type": "VEC3"
    },
    {
      "bufferView": 1,
      "byteOffset": 1160,
      "componentType": 5126,
      "count": 722,
      "max": [
        0.8222309947013855,
        0.82383298873901367
      ],
      "min": [
        0.004999999888241291,
        0.031670000404119492
      ],
      "type": "VEC2"
    },
    {
      "bufferView": 0,
      "byteOffset": 2664,
      "componentType": 5125,
      "count": 3144,
      "max": [
        721
      ],
      "min": [
        0
      ],
      "type": "SCALAR"
    },
    {
      "bufferView": 2,
      "byteOffset": 20808,
      "componentType": 5126,
      "count": 1028,
      "max": [
        2.8710010051727295,
        1.5911940336227417,
        -0.012353000231087208
      ],
      "min": [
        -2.7199859619140625,
        -1.9067139625549316,
        -0.046907998621463776
      ],
      "type": "VEC3"
    },
    {
      "bufferView": 2,
      "byteOffset": 33144,
      "componentType": 5126,
      "count": 1028,
      "max": [
        0.30897396802902222,
        0.30897605419158936,
        -0.95106810331344604
      ],
      "min": [
        -0.30897396802902222,
        -0.30897217988967896,
        -1
      ],
      "type": "VEC3"
    },
    {
      "bufferView": 1,
      "byteOffset": 6936,
      "componentType": 5126,
      "count": 1028,
      "max": [
        0.83933097124099731,
        0.83933097124099731
      ],
      "min": [
        0.56316697597503662,
        0.69651800394058228
      ],
      "type": "VEC2"
    },
    {
      "bufferView": 0,
      "byteOffset": 15240,
      "componentType": 5125,
      "count": 5736,
      "max": [
        1027
      ],
      "min": [
        0
      ],
      "type": "SCALAR"
    },
    {
      "bufferView": 2,
      "byteOffset": 45480,
      "componentType": 5126,
      "count": 9928,
      "max": [
        2.5266749858856201,
        1.3634129762649536,
        0.23991699516773224
      ],
      "min": [
        -2.6531620025634766,
        -0.46534198522567749,
        0.095440998673439026
      ],
      "type": "VEC3"
    },
    {
      "bufferView": 2,
      "byteOffset": 164616,
      "componentType": 5126,
      "count": 9928,
      "max": [
        0.99152690172195435,
        0.99843436479568481,
        0.99920397996902466
      ],
      "min": [
        -0.99156409502029419,
        -0.99843853712081909,
        -0.99919998645782471
      ],
      "type": "VEC3"
    },
    {
      "bufferView": 1,
      "byteOffset": 15160,
      "componentType": 5126,
      "count": 9928,
      "max": [
        0.97237700223922729,
        0.97416901588439941
      ],
      "min": [
        0.004999999888241291,
        0.004999999888241291
      ],
      "type": "VEC2"
    },
    {
      "bufferView": 0,
      "byteOffset": 38184,
      "componentType": 5125,
      "count": 43512,
      "max": [
        9927
      ],
      "min": [
        0
      ],
      "type": "SCALAR"
    },
    {
      "bufferView": 2,
      "byteOffset": 283752,
      "componentType": 5126,
      "count": 9772,
      "max": [
        2.8960409164428711,
        1.3634129762649536,
        0.23991699516773224
      ],
      "min": [
        -2.6603341102600098,
        -0.49772399663925171,
        0.095440998673439026
      ],
      "type": "VEC3"
    },
    {
      "bufferView": 2,
      "byteOffset": 401016,
      "componentType": 5126,
      "count": 9772,
      "max": [
        0.99195349216461182,
        0.99964964389801025,
        0.99662178754806519
      ],
      "min": [
        -0.99195051193237305,
        -0.99962437152862549,
        -0.99660235643386841
      ],
      "type": "VEC3"
    },
    {
      "bufferView": 1,
      "byteOffset": 94584,
      "componentType": 5126,
      "count": 9772,
      "max": [
        0.97237700223922729,
        0.9817889928817749
      ],
      "min": [
        0.004999999888241291,
        0.004999999888241291
      ],
      "type": "VEC2"
    },
    {
      "bufferView": 0,
      "byteOffset": 212232,
      "componentType": 5125,
      "count": 43044,
      "max": [
        9771
      ],
      "min": [
        0
      ],
      "type": "SCALAR"
    },
    {
      "bufferView": 2,
      "byteOffset": 518280,
      "componentType": 5126,
      "count": 868,
      "max": [
        2.9176440238952637,
        0.48553299903869629,
        0.23991699516773224
      ],
      "min": [
        -2.6379849910736084,
        -0.48512899875640869,
        0.095440998673439026
      ],
      "type": "VEC3"
    },
    {
      "bufferView": 2,
      "byteOffset": 528696,
      "componentType": 5126,
      "count": 868,
      "max": [
        0.97602188587188721,
        0.99962413311004639,
        0.99662548303604126
      ],
      "min": [
        -0.97605037689208984,
        -0.99965286254882812,
        -0.99660634994506836
      ],
      "type": "VEC3"
    },
    {
      "bufferView": 1,
      "byteOffset": 172760,
      "componentType": 5126,
      "count": 868,
      "max": [
        0.78378099203109741,
        0.79403400421142578
      ],
      "min": [
        0.085009999573230743,
        0.28503599762916565
      ],
      "type": "VEC2"
    },
    {
      "bufferView": 0,
      "byteOffset": 384408,
      "componentType": 5125,
      "count": 3852,
      "max": [
        867
      ],
      "min": [
        0
      ],
      "type": "SCALAR"
    },
    {
      "bufferView": 2,
      "byteOffset": 539112,
      "componentType": 5126,
      "count": 384,
      "max": [
        3.4948039054870605,
        1.2674649953842163,
        0.18908700346946716
      ],
      "min": [
        -3.2977759838104248,
        0.74668300151824951,
        0.16453500092029572
      ],
      "type": "VEC3"
    },
    {
      "bufferView": 2,
      "byteOffset": 543720,
      "componentType": 5126,
      "count": 384,
      "max": [
        1,
        1,
        1
      ],
      "min": [
        -1,
        -1,
        -1
      ],
      "type": "VEC3"
    },
    {
      "bufferView": 1,
      "byteOffset": 179704,
      "componentType": 5126,
      "count": 384,
      "max": [
        0.76901298761367798,
        0.78026401996612549
      ],
      "min": [
        0.004999999888241291,
        0.28884598612785339
      ],
      "type": "VEC2"
    },
    {
      "bufferView": 0,
      "byteOffset": 399816,
      "componentType": 5125,
      "count": 528,
      "max": [
        383
      ],
      "min": [
        0
      ],
      "type": "SCALAR"
    },
    {
      "bufferView": 2,
      "byteOffset": 548328,
      "componentType": 5126,
      "count": 5611,
      "max": [
        3.5056869983673096,
        1.9064949750900269,
        0.20310500264167786
      ],
      "min": [
        -3.3032979965209961,
        -2.2879149913787842,
        -0.011814000084996223
      ],
      "type": "VEC3"
    },
    {
      "bufferView": 2,
      "byteOffset": 615660,
      "componentType": 5126,
      "count": 5611,
      "max": [
        1,
        1,
        1
      ],
      "min": [
        -1,
        -1,
        -1
      ],
      "type": "VEC3"
    },
    {
      "bufferView": 3,
      "componentType": 5126,
      "count": 5611,
      "max": [
        1,
        1,
        1,
        1
      ],
      "min": [
        -1,
        -1,
        -1,
        -1
      ],
      "type": "VEC4"
    },
    {
      "bufferView": 1,
      "byteOffset": 182776,
      "componentType": 5126,
      "count": 5611,
      "max": [
        0.97581499814987183,
        0.99500000476837158
      ],
      "min": [
        0.004999999888241291,
        0.004999999888241291
      ],
      "type": "VEC2"
    },
    {
      "bufferView": 0,
      "byteOffset": 401928,
      "componentType": 5125,
      "count": 18615,
      "max": [
        5610
      ],
      "min": [
        0
      ],
      "type": "SCALAR"
    },
    {
      "bufferView": 2,
      "byteOffset": 682992,
      "componentType": 5126,
      "count": 9993,
      "max": [
        3.5056869983673096,
        1.9064949750900269,
        0.24746899306774139
      ],
      "min": [
        -3.3033010959625244,
        -2.2879300117492676,
        0.010114000178873539
      ],
      "type": "VEC3"
    },
    {
      "bufferView": 2,
      "byteOffset": 802908,
      "componentType": 5126,
      "count": 9993,
      "max": [
        1,
        1,
        1
      ],
      "min": [
        -1,
        -1,
        -1
      ],
      "type": "VEC3"
    },
    {
      "bufferView": 3,
      "byteOffset": 89776,
      "componentType": 5126,
      "count": 9993,
      "max": [
        1,
        1,
        1,
        1
      ],
      "min": [
        -1,
        -1,
        -1,
        -1
      ],
      "type": "VEC4"
    },
    {
      "bufferView": 1,
      "byteOffset": 227664,
      "componentType": 5126,
      "count": 9993,
      "max": [
        0.8683590292930603,
        0.92270702123641968
      ],
      "min": [
        0.004999999888241291,
        0.027860000729560852
      ],
      "type": "VEC2"
    },
    {
      "bufferView": 0,
      "byteOffset": 476388,
      "componentType": 5125,
      "count": 48135,
      "max": [
        9992
      ],
      "min": [
        0
      ],
      "type": "SCALAR"
    },
    {
      "bufferView": 2,
      "byteOffset": 922824,
      "componentType": 5126,
      "count": 1309,
      "max": [
        3.528947114944458,
        2.0916929244995117,
        4.3480668067932129
      ],
      "min": [
        -3.3035531044006348,
        0.53982800245285034,
        0.091618001461029053
      ],
      "type": "VEC3"
    },
    {
      "bufferView": 2,
      "byteOffset": 938532,
      "componentType": 5126,
      "count": 1309,
      "max": [
        1,
        1,
        1
      ],
      "min": [
        -1,
        -1,
        -0.99689763784408569
      ],
      "type": "VEC3"
    },
    {
      "bufferView": 3,
      "byteOffset": 249664,
      "componentType": 5126,
      "count": 1309,
      "max": [
        1,
        0.99998021125793457,
        1,
        1
      ],
      "min": [
        -1,
        -1,
        -1,
        -1
      ],
      "type": "VEC4"
    },
    {
      "bufferView": 1,
      "byteOffset": 307608,
      "componentType": 5126,
      "count": 1309,
      "max": [
        0.97337102890014648,
        0.9197540283203125
      ],
      "min": [
        0.004999999888241291,
        0.004999999888241291
      ],
      "type": "VEC2"
    },
    {
      "bufferView": 0,
      "byteOffset": 668928,
      "componentType": 5125,
      "count": 2592,
      "max": [
        1308
      ],
      "min": [
        0
      ],
      "type": "SCALAR"
    }
  ],
  "asset": {
    "extras": {
      "author": "Oleg Muzyka (https://sketchfab.com/olemuzyka)",
      "license": "CC-BY-4.0 (http://creativecommons.org/licenses/by/4.0/)",
      "source": "https://sketchfab.com/3d-models/laptop-5ee15da877a84df3aade63344d9fc1a4",
      "title": "Laptop"
    },
    "generator": "Sketchfab-8.10.0",
    "version": "2.0"
  },
  "bufferViews": [
    {
      "buffer": 0,
      "byteLength": 679296,
      "byteOffset": 0,
      "name": "floatBufferViews",
      "target": 34963
    },
    {
      "buffer": 0,
      "byteLength": 318080,
      "byteOffset": 679296,
      "byteStride": 8,
      "name": "floatBufferViews",
      "target": 34962
    },
    {
      "buffer": 0,
      "byteLength": 954240,
      "byteOffset": 997376,
      "byteStride": 12,
      "name": "floatBufferViews",
      "target": 34962
    },
    {
      "buffer": 0,
      "byteLength": 270608,
      "byteOffset": 1951616,
      "byteStride": 16,
      "name": "floatBufferViews",
      "target": 34962
    }
  ],
  "buffers": [
    {
      "byteLength": 2222224,
      "uri": "laptop.bin"
    }
  ],
  "images": [
    {
      "uri": "textures/aiStandardSurface3SG_baseColor.png"
    },
    {
      "uri": "textures/initialShadingGroup_metallicRoughness.png"
    },
    {
      "uri": "textures/initialShadingGroup_normal.png"
    }
  ],
  "materials": [
    {
      "doubleSided": true,
      "name": "aiStandardSurface1SG",
      "pbrMetallicRoughness": {
        "baseColorFactor": [
          0,
          0,
          0,
          1
        ],
        "metallicFactor": 1,
        "roughnessFactor": 0.11756859756097561
      }
    },
    {
      "doubleSided": true,
      "name": "aiStandardSurface3SG",
      "pbrMetallicRoughness": {
        "baseColorFactor": [
          1,
          1,
          1,
          1
        ],
        "baseColorTexture": {
          "index": 0,
          "texCoord": 0
        },
        "metallicFactor": 0.37366615853658536,
        "roughnessFactor": 0.47122713414634149
      }
    },
    {
      "doubleSided": true,
      "name": "aiStandardSurface4SG",
      "pbrMetallicRoughness": {
        "baseColorFactor": [
          1,
          1,
          1,
          1
        ],
        "baseColorTexture": {
          "index": 0,
          "texCoord": 0
        },
        "metallicFactor": 0.59927591463414631,
        "roughnessFactor": 0.59999999999999998
      }
    },
    {
      "doubleSided": true,
      "name": "aiStandardSurface5SG",
      "pbrMetallicRoughness": {
        "baseColorFactor": [
          1,
          1,
          1,
          1
        ],
        "metallicFactor": 0,
        "roughnessFactor": 0.59999999999999998
      }
    },
    {
      "doubleSided": true,
      "name": "aiStandardSurface6SG",
      "pbrMetallicRoughness": {
        "baseColorFactor": [
          1,
          1,
          1,
          1
        ],
        "baseColorTexture": {
          "index": 0,
          "texCoord": 0
        },
        "metallicFactor": 0.22122713414634146,
        "roughnessFactor": 0.52610518292682928
      }
    },
    {
      "doubleSided": true,
      "name": "aiStandardSurface7SG",
      "pbrMetallicRoughness": {
        "baseColorFactor": [
          0.00034247513630510481,
          1.5153767093146216e-05,
          1.5153767093146216e-05,
          1
        ],
        "metallicFactor": 0.43464176829268292,
        "roughnessFactor": 0.18730945121951215
      }
    },
    {
      "doubleSided": true,
      "name": "initialShadingGroup",
      "normalTexture": {
        "index": 2,
        "scale": 1,
        "texCoord": 0
      },
      "pbrMetallicRoughness": {
        "baseColorFactor": [
          1,
          1,
          1,
          1
        ],
        "baseColorTexture": {
          "index": 0,
          "texCoord": 0
        },
        "metallicFactor": 1,
        "metallicRoughnessTexture": {
          "index": 1,
          "texCoord": 0
        },
        "roughnessFactor": 0.22732469512195122
      }
    }
  ],
  "meshes": [
    {
      "primitives": [
        {
          "attributes": {
            "NORMAL": 1,
            "POSITION": 0,
            "TEXCOORD_0": 2
          },
          "indices": 3,
          "material": 3,
          "mode": 4
        }
      ]
    },
    {
      "primitives": [
        {
          "attributes": {
            "NORMAL": 5,
            "POSITION": 4,
            "TEXCOORD_0": 6
          },
          "indices": 7,
          "material": 5,
          "mode": 4
        }
      ]
    },
    {
      "primitives": [
        {
          "attributes": {
            "NORMAL": 9,
            "POSITION": 8,
            "TEXCOORD_0": 10
          },
          "indices": 11,
          "material": 0,
          "mode": 4
        }
      ]
    },
    {
      "primitives": [
        {
          "attributes": {
            "NORMAL": 13,
            "POSITION": 12,
            "TEXCOORD_0": 14
          },
          "indices": 15,
          "material": 1,
          "mode": 4
        }
      ]
    },
    {
      "primitives": [
        {
          "attributes": {
            "NORMAL": 17,
            "POSITION": 16,
            "TEXCOORD_0": 18
          },
          "indices": 19,
          "material": 2,
          "mode": 4
        }
      ]
    },
    {
      "primitives": [
        {
          "attributes": {
            "NORMAL": 21,
            "POSITION": 20,
            "TEXCOORD_0": 22
          },
          "indices": 23,
          "material": 2,
          "mode": 4
        }
      ]
    },
    {
      "primitives": [
        {
          "attributes": {
            "NORMAL": 25,
            "POSITION": 24,
            "TEXCOORD_0": 26
          },
          "indices": 27,
          "material": 2,
          "mode": 4
        }
      ]
    },
    {
      "primitives": [
        {
          "attributes": {
            "NORMAL": 29,
            "POSITION": 28,
            "TEXCOORD_0": 30
          },
          "indices": 31,
          "material": 4,
          "mode": 4
        }
      ]
    },
    {
      "primitives": [
        {
          "attributes": {
            "NORMAL": 33,
            "POSITION": 32,
            "TANGENT": 34,
            "TEXCOORD_0": 35
          },
          "indices": 36,
          "material": 6,
          "mode": 4
        }
      ]
    },
    {
      "primitives": [
        {
          "attributes": {
            "NORMAL": 38,
            "POSITION": 37,
            "TANGENT": 39,
            "TEXCOORD_0": 40
          },
          "indices": 41,
          "material": 6,
          "mode": 4
        }
      ]
    },
    {
      "primitives": [
        {
          "attributes": {
            "NORMAL": 43,
            "POSITION": 42,
            "TANGENT": 44,
            "TEXCOORD_0": 45
          },
          "indices": 46,
          "material": 6,
          "mode": 4
        }
      ]
    }
  ],
  "nodes": [
    {
      "children": [
        1
      ],
      "name": "RootNode (gltf orientation matrix)",
      "rotation": [
        -0.70710678118654746,
        -0,
        -0,
        0.70710678118654757
      ]
    },
    {
      "children": [
        2
      ],
      "name": "RootNode (model correction matrix)"
    },
    {
      "children": [
        3,
        4,
        5,
        6,
        7,
        8,
        9,
        10,
        11,
        12,
        13
      ],
      "name": "laptop.obj.cleaner.materialmerger.gles"
    },
    {
      "mesh": 0,
      "name": ""
    },
    {
      "mesh": 1,
      "name": ""
    },
    {
      "mesh": 2,
      "name": ""
    },
    {
      "mesh": 3,
      "name": ""
    },
    {
      "mesh": 4,
      "name": ""
    },
    {
      "mesh": 5,
      "name": ""
    },
    {
      "mesh": 6,
      "name": ""
    },
    {
      "mesh": 7,
      "name": ""
    },
    {
      "mesh": 8,
      "name": ""
    },
    {
      "mesh": 9,
      "name": ""
    },
    {
      "mesh": 10,
      "name": ""
    }
  ],
  "samplers": [
    {
      "magFilter": 9729,
      "minFilter": 9987,
      "wrapS": 10497,
      "wrapT": 10497
    }
  ],
  "scene": 0,
  "scenes": [
    {
      "name": "OSG_Scene",
      "nodes": [
        0
      ]
    }
  ],
  "textures": [
    {
      "sampler": 0,
      "source": 0
    },
    {
      "sampler": 0,
      "source": 1
    },
    {
      "sampler": 0,
      "source": 2
    }
  ]
}

