{
  "accessors": [
    {
      "bufferView": 2,
      "componentType": 5126,
      "count": 186,
      "max": [
        744.7998046875,
        496.82168579101562,
        400.32192993164062
      ],
      "min": [
        2.5816900158480427e-13,
        -495.17831420898438,
        -401.67807006835938
      ],
      "type": "VEC3"
    },
    {
      "bufferView": 2,
      "byteOffset": 2232,
      "componentType": 5126,
      "count": 186,
      "max": [
        1,
        1,
        0.99998182058334351
      ],
      "min": [
        -1,
        -1,
        -1
      ],
      "type": "VEC3"
    },
    {
      "bufferView": 3,
      "componentType": 5126,
      "count": 186,
      "max": [
        1,
        0.025289149954915047,
        1,
        1
      ],
      "min": [
        -1,
        -0.0089226402342319489,
        -1,
        1
      ],
      "type": "VEC4"
    },
    {
      "bufferView": 1,
      "componentType": 5126,
      "count": 186,
      "max": [
        0.99149501323699951,
        0.99122160673141479
      ],
      "min": [
        0.0085049746558070183,
        0.0087784528732299805
      ],
      "type": "VEC2"
    },
    {
      "bufferView": 0,
      "componentType": 5125,
      "count": 204,
      "max": [
        185
      ],
      "min": [
        0
      ],
      "type": "SCALAR"
    }
  ],
  "asset": {
    "extras": {
      "author": "Daniel O'Neil (https://sketchfab.com/doneil)",
      "license": "CC-BY-4.0 (http://creativecommons.org/licenses/by/4.0/)",
      "source": "https://sketchfab.com/models/3b66e98d137d4a23aaa725ce0a8aec28",
      "title": "Macintosh Classic (1991)"
    },
    "generator": "Sketchfab-4.1.0",
    "version": "2.0"
  },
  "bufferViews": [
    {
      "buffer": 0,
      "byteLength": 816,
      "byteOffset": 0,
      "name": "floatBufferViews",
      "target": 34963
    },
    {
      "buffer": 0,
      "byteLength": 1488,
      "byteOffset": 816,
      "byteStride": 8,
      "name": "floatBufferViews",
      "target": 34962
    },
    {
      "buffer": 0,
      "byteLength": 4464,
      "byteOffset": 2304,
      "byteStride": 12,
      "name": "floatBufferViews",
      "target": 34962
    },
    {
      "buffer": 0,
      "byteLength": 2976,
      "byteOffset": 6768,
      "byteStride": 16,
      "name": "floatBufferViews",
      "target": 34962
    }
  ],
  "buffers": [
    {
      "byteLength": 9744,
      "uri": "mac.bin"
    }
  ],
  "images": [
    {
      "uri": "textures/Mac.Tri.Baked_baseColor.png"
    }
  ],
  "materials": [
    {
      "doubleSided": true,
      "emissiveFactor": [
        0,
        0,
        0
      ],
      "name": "Mac.Tri.Baked",
      "pbrMetallicRoughness": {
        "baseColorFactor": [
          1,
          1,
          1,
          1
        ],
        "baseColorTexture": {
          "index": 0,
          "texCoord": 0
        },
        "metallicFactor": 0,
        "roughnessFactor": 0.95243171540000005
      }
    }
  ],
  "meshes": [
    {
      "name": "Mac_Tri_Baked_Mac.Tri.Baked_0",
      "primitives": [
        {
          "attributes": {
            "NORMAL": 1,
            "POSITION": 0,
            "TANGENT": 2,
            "TEXCOORD_0": 3
          },
          "indices": 4,
          "material": 0,
          "mode": 4
        }
      ]
    }
  ],
  "nodes": [
    {
      "children": [
        1
      ],
      "name": "RootNode (gltf orientation matrix)",
      "rotation": [
        -0.70710678118654746,
        -0,
        -0,
        0.70710678118654757
      ]
    },
    {
      "children": [
        2
      ],
      "name": "RootNode (model correction matrix)"
    },
    {
      "children": [
        3
      ],
      "matrix": [
        1,
        0,
        0,
        0,
        0,
        0,
        1,
        0,
        0,
        -1,
        0,
        0,
        0,
        0,
        0,
        1
      ],
      "name": "b48207c2117c4690beb1bb0b13114551.fbx"
    },
    {
      "children": [
        4,
        6
      ],
      "name": "RootNode"
    },
    {
      "children": [
        5
      ],
      "matrix": [
        -0.39918878136494551,
        -0.071275873270532045,
        -0.9140941235572474,
        0,
        -0.028525078517991621,
        0.99745664060625872,
        -0.06531898656607707,
        0,
        0.91642492148997767,
        -3.4000580129145419e-16,
        -0.40020665070946526,
        0,
        646.616943359375,
        151.22805786132812,
        2465.197265625,
        1
      ],
      "name": "CINEMA_4D_Editor"
    },
    {
      "name": ""
    },
    {
      "children": [
        7
      ],
      "matrix": [
        1,
        0,
        0,
        0,
        0,
        1,
        0,
        0,
        0,
        0,
        1,
        0,
        -371.19036865234375,
        0,
        0,
        1
      ],
      "name": "Mac_Tri_Baked"
    },
    {
      "mesh": 0,
      "name": "Mac_Tri_Baked_Mac.Tri.Baked_0"
    }
  ],
  "samplers": [
    {
      "magFilter": 9729,
      "minFilter": 9987,
      "wrapS": 10497,
      "wrapT": 10497
    }
  ],
  "scene": 0,
  "scenes": [
    {
      "name": "OSG_Scene",
      "nodes": [
        0
      ]
    }
  ],
  "textures": [
    {
      "sampler": 0,
      "source": 0
    }
  ]
}

