{
  "accessors": [
    {
      "bufferView": 2,
      "componentType": 5126,
      "count": 65532,
      "max": [
        19.869722366333008,
        12.569961547851562,
        9.9159297943115234
      ],
      "min": [
        1.6371755599975586,
        0.44288253784179688,
        0.38787269592285156
      ],
      "type": "VEC3"
    },
    {
      "bufferView": 2,
      "byteOffset": 786384,
      "componentType": 5126,
      "count": 65532,
      "max": [
        0.99994742870330811,
        0.99999719858169556,
        0.99999672174453735
      ],
      "min": [
        -0.99995309114456177,
        -0.99740099906921387,
        -0.99985259771347046
      ],
      "type": "VEC3"
    },
    {
      "bufferView": 3,
      "componentType": 5126,
      "count": 65532,
      "max": [
        0.99999451637268066,
        0.999991774559021,
        0.9997064471244812,
        1
      ],
      "min": [
        -0.99987882375717163,
        -0.99998396635055542,
        -0.99987047910690308,
        -1
      ],
      "type": "VEC4"
    },
    {
      "bufferView": 1,
      "componentType": 5126,
      "count": 65532,
      "max": [
        0.99366700649261475,
        0.99956101179122925
      ],
      "min": [
        0.00095000001601874828,
        0.0039059999398887157
      ],
      "type": "VEC2"
    },
    {
      "bufferView": 0,
      "componentType": 5125,
      "count": 340122,
      "max": [
        65531
      ],
      "min": [
        0
      ],
      "type": "SCALAR"
    },
    {
      "bufferView": 2,
      "byteOffset": 1572768,
      "componentType": 5126,
      "count": 65532,
      "max": [
        19.850414276123047,
        12.123929023742676,
        9.9120206832885742
      ],
      "min": [
        1.5736312866210938,
        0.16592025756835938,
        0.35220766067504883
      ],
      "type": "VEC3"
    },
    {
      "bufferView": 2,
      "byteOffset": 2359152,
      "componentType": 5126,
      "count": 65532,
      "max": [
        0.99994438886642456,
        0.99999845027923584,
        0.99997895956039429
      ],
      "min": [
        -0.99989145994186401,
        -0.99877673387527466,
        -0.99985259771347046
      ],
      "type": "VEC3"
    },
    {
      "bufferView": 3,
      "byteOffset": 1048512,
      "componentType": 5126,
      "count": 65532,
      "max": [
        0.99997222423553467,
        0.99990004301071167,
        0.99992382526397705,
        1
      ],
      "min": [
        -0.99954050779342651,
        -0.99982470273971558,
        -0.99997133016586304,
        -1
      ],
      "type": "VEC4"
    },
    {
      "bufferView": 1,
      "byteOffset": 524256,
      "componentType": 5126,
      "count": 65532,
      "max": [
        0.99337500333786011,
        1.0000439882278442
      ],
      "min": [
        0.0011010000016540289,
        0.0096699995920062065
      ],
      "type": "VEC2"
    },
    {
      "bufferView": 0,
      "byteOffset": 1360488,
      "componentType": 5125,
      "count": 334863,
      "max": [
        65531
      ],
      "min": [
        0
      ],
      "type": "SCALAR"
    },
    {
      "bufferView": 2,
      "byteOffset": 3145536,
      "componentType": 5126,
      "count": 65532,
      "max": [
        19.864635467529297,
        12.677403450012207,
        9.8997840881347656
      ],
      "min": [
        0.067699432373046875,
        0.41966629028320312,
        0.56140971183776855
      ],
      "type": "VEC3"
    },
    {
      "bufferView": 2,
      "byteOffset": 3931920,
      "componentType": 5126,
      "count": 65532,
      "max": [
        0.99994742870330811,
        0.99999713897705078,
        0.99999463558197021
      ],
      "min": [
        -0.99993443489074707,
        -0.99776619672775269,
        -0.99997657537460327
      ],
      "type": "VEC3"
    },
    {
      "bufferView": 3,
      "byteOffset": 2097024,
      "componentType": 5126,
      "count": 65532,
      "max": [
        0.99985349178314209,
        0.99999493360519409,
        0.9996216893196106,
        1
      ],
      "min": [
        -0.99997514486312866,
        -0.99690759181976318,
        -0.99998354911804199,
        -1
      ],
      "type": "VEC4"
    },
    {
      "bufferView": 1,
      "byteOffset": 1048512,
      "componentType": 5126,
      "count": 65532,
      "max": [
        0.99341201782226562,
        0.9993169903755188
      ],
      "min": [
        0.0011220000451430678,
        0.024532999843358994
      ],
      "type": "VEC2"
    },
    {
      "bufferView": 0,
      "byteOffset": 2699940,
      "componentType": 5125,
      "count": 325986,
      "max": [
        65531
      ],
      "min": [
        0
      ],
      "type": "SCALAR"
    },
    {
      "bufferView": 2,
      "byteOffset": 4718304,
      "componentType": 5126,
      "count": 65532,
      "max": [
        19.852655410766602,
        12.677403450012207,
        9.6625652313232422
      ],
      "min": [
        0.07375335693359375,
        0.17755889892578125,
        0.94677376747131348
      ],
      "type": "VEC3"
    },
    {
      "bufferView": 2,
      "byteOffset": 5504688,
      "componentType": 5126,
      "count": 65532,
      "max": [
        0.99993807077407837,
        0.99999648332595825,
        0.99997198581695557
      ],
      "min": [
        -0.99997138977050781,
        -0.99979466199874878,
        -0.99747300148010254
      ],
      "type": "VEC3"
    },
    {
      "bufferView": 3,
      "byteOffset": 3145536,
      "componentType": 5126,
      "count": 65532,
      "max": [
        0.99999487400054932,
        0.99999964237213135,
        0.99998408555984497,
        1
      ],
      "min": [
        -0.99999523162841797,
        -0.99244171380996704,
        -0.99999809265136719,
        -1
      ],
      "type": "VEC4"
    },
    {
      "bufferView": 1,
      "byteOffset": 1572768,
      "componentType": 5126,
      "count": 65532,
      "max": [
        0.99268299341201782,
        0.99961000680923462
      ],
      "min": [
        0.0014440000522881746,
        0.027910999953746796
      ],
      "type": "VEC2"
    },
    {
      "bufferView": 0,
      "byteOffset": 4003884,
      "componentType": 5125,
      "count": 324123,
      "max": [
        65531
      ],
      "min": [
        0
      ],
      "type": "SCALAR"
    },
    {
      "bufferView": 2,
      "byteOffset": 6291072,
      "componentType": 5126,
      "count": 65532,
      "max": [
        19.869722366333008,
        12.629167556762695,
        9.4345159530639648
      ],
      "min": [
        0.63846397399902344,
        0.55154228210449219,
        0.049502849578857422
      ],
      "type": "VEC3"
    },
    {
      "bufferView": 2,
      "byteOffset": 7077456,
      "componentType": 5126,
      "count": 65532,
      "max": [
        0.99967300891876221,
        0.99998104572296143,
        0.99999153614044189
      ],
      "min": [
        -0.99949437379837036,
        -0.99989670515060425,
        -0.99997657537460327
      ],
      "type": "VEC3"
    },
    {
      "bufferView": 3,
      "byteOffset": 4194048,
      "componentType": 5126,
      "count": 65532,
      "max": [
        0.99999892711639404,
        0.99960631132125854,
        0.99882876873016357,
        1
      ],
      "min": [
        -0.99980241060256958,
        -0.99935227632522583,
        -0.99999153614044189,
        -1
      ],
      "type": "VEC4"
    },
    {
      "bufferView": 1,
      "byteOffset": 2097024,
      "componentType": 5126,
      "count": 65532,
      "max": [
        0.99185901880264282,
        0.99932998418807983
      ],
      "min": [
        0.001888000057078898,
        0.028770999982953072
      ],
      "type": "VEC2"
    },
    {
      "bufferView": 0,
      "byteOffset": 5300376,
      "componentType": 5125,
      "count": 323457,
      "max": [
        65531
      ],
      "min": [
        0
      ],
      "type": "SCALAR"
    },
    {
      "bufferView": 2,
      "byteOffset": 7863840,
      "componentType": 5126,
      "count": 65532,
      "max": [
        19.868059158325195,
        12.558052062988281,
        9.1352577209472656
      ],
      "min": [
        0.39031791687011719,
        0.54465866088867188,
        1.5987758636474609
      ],
      "type": "VEC3"
    },
    {
      "bufferView": 2,
      "byteOffset": 8650224,
      "componentType": 5126,
      "count": 65532,
      "max": [
        0.99987220764160156,
        0.99999326467514038,
        0.99999523162841797
      ],
      "min": [
        -0.99976581335067749,
        -0.99998414516448975,
        -0.99999994039535522
      ],
      "type": "VEC3"
    },
    {
      "bufferView": 3,
      "byteOffset": 5242560,
      "componentType": 5126,
      "count": 65532,
      "max": [
        0.99999600648880005,
        0.99996829032897949,
        0.99291735887527466,
        1
      ],
      "min": [
        -0.99999803304672241,
        -0.99999713897705078,
        -0.99999010562896729,
        -1
      ],
      "type": "VEC4"
    },
    {
      "bufferView": 1,
      "byteOffset": 2621280,
      "componentType": 5126,
      "count": 65532,
      "max": [
        0.98865801095962524,
        0.9991070032119751
      ],
      "min": [
        2.7000000045518391e-05,
        0.026576999574899673
      ],
      "type": "VEC2"
    },
    {
      "bufferView": 0,
      "byteOffset": 6594204,
      "componentType": 5125,
      "count": 321042,
      "max": [
        65531
      ],
      "min": [
        0
      ],
      "type": "SCALAR"
    },
    {
      "bufferView": 2,
      "byteOffset": 9436608,
      "componentType": 5126,
      "count": 65532,
      "max": [
        19.911584854125977,
        12.406227111816406,
        8.7539539337158203
      ],
      "min": [
        0.090715408325195312,
        0.19474029541015625,
        0.52789878845214844
      ],
      "type": "VEC3"
    },
    {
      "bufferView": 2,
      "byteOffset": 10222992,
      "componentType": 5126,
      "count": 65532,
      "max": [
        0.99999850988388062,
        0.99999326467514038,
        0.99989420175552368
      ],
      "min": [
        -0.99998891353607178,
        -0.99999970197677612,
        -0.99999415874481201
      ],
      "type": "VEC3"
    },
    {
      "bufferView": 3,
      "byteOffset": 6291072,
      "componentType": 5126,
      "count": 65532,
      "max": [
        0.99998509883880615,
        0.99970906972885132,
        0.99736028909683228,
        1
      ],
      "min": [
        -0.99999940395355225,
        -0.9999580979347229,
        -0.99999618530273438,
        -1
      ],
      "type": "VEC4"
    },
    {
      "bufferView": 1,
      "byteOffset": 3145536,
      "componentType": 5126,
      "count": 65532,
      "max": [
        0.99463802576065063,
        0.99969398975372314
      ],
      "min": [
        0.0013089999556541443,
        0.041200000792741776
      ],
      "type": "VEC2"
    },
    {
      "bufferView": 0,
      "byteOffset": 7878372,
      "componentType": 5125,
      "count": 308628,
      "max": [
        65531
      ],
      "min": [
        0
      ],
      "type": "SCALAR"
    },
    {
      "bufferView": 2,
      "byteOffset": 11009376,
      "componentType": 5126,
      "count": 65532,
      "max": [
        19.89061164855957,
        12.157933235168457,
        8.0875110626220703
      ],
      "min": [
        0,
        0.41862869262695312,
        0.33074760437011719
      ],
      "type": "VEC3"
    },
    {
      "bufferView": 2,
      "byteOffset": 11795760,
      "componentType": 5126,
      "count": 65532,
      "max": [
        0.99995362758636475,
        0.99999326467514038,
        0.99931204319000244
      ],
      "min": [
        -0.99998354911804199,
        -0.99998122453689575,
        -0.99999940395355225
      ],
      "type": "VEC3"
    },
    {
      "bufferView": 3,
      "byteOffset": 7339584,
      "componentType": 5126,
      "count": 65532,
      "max": [
        0.99999326467514038,
        0.99954253435134888,
        0.99871039390563965,
        1
      ],
      "min": [
        -0.99999737739562988,
        -0.9999580979347229,
        -0.99982035160064697,
        -1
      ],
      "type": "VEC4"
    },
    {
      "bufferView": 1,
      "byteOffset": 3669792,
      "componentType": 5126,
      "count": 65532,
      "max": [
        0.99317502975463867,
        0.99939298629760742
      ],
      "min": [
        0.011194000020623207,
        0.0036140000447630882
      ],
      "type": "VEC2"
    },
    {
      "bufferView": 0,
      "byteOffset": 9112884,
      "componentType": 5125,
      "count": 308556,
      "max": [
        65531
      ],
      "min": [
        0
      ],
      "type": "SCALAR"
    },
    {
      "bufferView": 2,
      "byteOffset": 12582144,
      "componentType": 5126,
      "count": 65532,
      "max": [
        19.911584854125977,
        11.762907981872559,
        7.5895357131958008
      ],
      "min": [
        0,
        0.29975509643554688,
        0
      ],
      "type": "VEC3"
    },
    {
      "bufferView": 2,
      "byteOffset": 13368528,
      "componentType": 5126,
      "count": 65532,
      "max": [
        0.99990063905715942,
        0.99997234344482422,
        0.99951225519180298
      ],
      "min": [
        -0.99998891353607178,
        -0.9999738335609436,
        -0.99999994039535522
      ],
      "type": "VEC3"
    },
    {
      "bufferView": 3,
      "byteOffset": 8388096,
      "componentType": 5126,
      "count": 65532,
      "max": [
        0.99999773502349854,
        0.99996107816696167,
        0.99284332990646362,
        1
      ],
      "min": [
        -0.99999940395355225,
        -0.99986916780471802,
        -0.99998980760574341,
        -1
      ],
      "type": "VEC4"
    },
    {
      "bufferView": 1,
      "byteOffset": 4194048,
      "componentType": 5126,
      "count": 65532,
      "max": [
        0.98616701364517212,
        0.99957799911499023
      ],
      "min": [
        0.00066399999195709825,
        0.0045730001293122768
      ],
      "type": "VEC2"
    },
    {
      "bufferView": 0,
      "byteOffset": 10347108,
      "componentType": 5125,
      "count": 290607,
      "max": [
        65531
      ],
      "min": [
        0
      ],
      "type": "SCALAR"
    },
    {
      "bufferView": 2,
      "byteOffset": 14154912,
      "componentType": 5126,
      "count": 65532,
      "max": [
        19.716712951660156,
        10.306606292724609,
        5.80487060546875
      ],
      "min": [
        0.3260955810546875,
        0.12087249755859375,
        0.21579790115356445
      ],
      "type": "VEC3"
    },
    {
      "bufferView": 2,
      "byteOffset": 14941296,
      "componentType": 5126,
      "count": 65532,
      "max": [
        0.99995791912078857,
        0.99933212995529175,
        0.97482705116271973
      ],
      "min": [
        -0.99994564056396484,
        -0.99998122453689575,
        -0.99999707937240601
      ],
      "type": "VEC3"
    },
    {
      "bufferView": 3,
      "byteOffset": 9436608,
      "componentType": 5126,
      "count": 65532,
      "max": [
        0.99999147653579712,
        0.99663323163986206,
        0.998443603515625,
        1
      ],
      "min": [
        -0.99998748302459717,
        -0.99996161460876465,
        -0.99939054250717163,
        -1
      ],
      "type": "VEC4"
    },
    {
      "bufferView": 1,
      "byteOffset": 4718304,
      "componentType": 5126,
      "count": 65532,
      "max": [
        0.98510599136352539,
        0.99970197677612305
      ],
      "min": [
        0.0010590000310912728,
        0.005646000150591135
      ],
      "type": "VEC2"
    },
    {
      "bufferView": 0,
      "byteOffset": 11509536,
      "componentType": 5125,
      "count": 300714,
      "max": [
        65531
      ],
      "min": [
        0
      ],
      "type": "SCALAR"
    },
    {
      "bufferView": 2,
      "byteOffset": 15727680,
      "componentType": 5126,
      "count": 45634,
      "max": [
        19.885238647460938,
        9.0673646926879883,
        8.8457984924316406
      ],
      "min": [
        1.2665338516235352,
        0,
        0.0022187232971191406
      ],
      "type": "VEC3"
    },
    {
      "bufferView": 2,
      "byteOffset": 16275288,
      "componentType": 5126,
      "count": 45634,
      "max": [
        0.99955511093139648,
        0.99840360879898071,
        0.97691035270690918
      ],
      "min": [
        -0.99991524219512939,
        -0.99983781576156616,
        -0.99998021125793457
      ],
      "type": "VEC3"
    },
    {
      "bufferView": 3,
      "byteOffset": 10485120,
      "componentType": 5126,
      "count": 45634,
      "max": [
        0.99990159273147583,
        0.99691241979598999,
        0.99985897541046143,
        1
      ],
      "min": [
        -0.99983209371566772,
        -0.99994564056396484,
        -0.99956846237182617,
        -1
      ],
      "type": "VEC4"
    },
    {
      "bufferView": 1,
      "byteOffset": 5242560,
      "componentType": 5126,
      "count": 45634,
      "max": [
        0.99552500247955322,
        0.99971598386764526
      ],
      "min": [
        -0.00048099999548867345,
        0.0036289999261498451
      ],
      "type": "VEC2"
    },
    {
      "bufferView": 0,
      "byteOffset": 12712392,
      "componentType": 5125,
      "count": 192072,
      "max": [
        45633
      ],
      "min": [
        0
      ],
      "type": "SCALAR"
    }
  ],
  "asset": {
    "extras": {
      "author": "The British Museum (https://sketchfab.com/britishmuseum)",
      "license": "CC-BY-NC-SA-4.0 (http://creativecommons.org/licenses/by-nc-sa/4.0/)",
      "source": "https://sketchfab.com/models/62886082c3b144d18ca516b396cf29f5",
      "title": "Antinous"
    },
    "generator": "Sketchfab-3.18.7",
    "version": "2.0"
  },
  "bufferViews": [
    {
      "buffer": 0,
      "byteLength": 13480680,
      "byteOffset": 0,
      "name": "floatBufferViews",
      "target": 34963
    },
    {
      "buffer": 0,
      "byteLength": 5607632,
      "byteOffset": 13480680,
      "byteStride": 8,
      "name": "floatBufferViews",
      "target": 34962
    },
    {
      "buffer": 0,
      "byteLength": 16822896,
      "byteOffset": 19088312,
      "byteStride": 12,
      "name": "floatBufferViews",
      "target": 34962
    },
    {
      "buffer": 0,
      "byteLength": 11215264,
      "byteOffset": 35911208,
      "byteStride": 16,
      "name": "floatBufferViews",
      "target": 34962
    }
  ],
  "buffers": [
    {
      "byteLength": 47126472,
      "uri": "statue.bin"
    }
  ],
  "extensionsUsed": [
    "KHR_materials_unlit"
  ],
  "images": [
    {
      "uri": "textures/material_0_baseColor.jpeg"
    }
  ],
  "materials": [
    {
      "doubleSided": true,
      "emissiveFactor": [
        0,
        0,
        0
      ],
      "extensions": {
        "KHR_materials_unlit": {}
      },
      "name": "material_0",
      "pbrMetallicRoughness": {
        "baseColorFactor": [
          1,
          1,
          1,
          1
        ],
        "baseColorTexture": {
          "index": 0,
          "texCoord": 0
        },
        "metallicFactor": 0,
        "roughnessFactor": 1
      }
    }
  ],
  "meshes": [
    {
      "primitives": [
        {
          "attributes": {
            "NORMAL": 1,
            "POSITION": 0,
            "TANGENT": 2,
            "TEXCOORD_0": 3
          },
          "indices": 4,
          "material": 0,
          "mode": 4
        }
      ]
    },
    {
      "primitives": [
        {
          "attributes": {
            "NORMAL": 6,
            "POSITION": 5,
            "TANGENT": 7,
            "TEXCOORD_0": 8
          },
          "indices": 9,
          "material": 0,
          "mode": 4
        }
      ]
    },
    {
      "primitives": [
        {
          "attributes": {
            "NORMAL": 11,
            "POSITION": 10,
            "TANGENT": 12,
            "TEXCOORD_0": 13
          },
          "indices": 14,
          "material": 0,
          "mode": 4
        }
      ]
    },
    {
      "primitives": [
        {
          "attributes": {
            "NORMAL": 16,
            "POSITION": 15,
            "TANGENT": 17,
            "TEXCOORD_0": 18
          },
          "indices": 19,
          "material": 0,
          "mode": 4
        }
      ]
    },
    {
      "primitives": [
        {
          "attributes": {
            "NORMAL": 21,
            "POSITION": 20,
            "TANGENT": 22,
            "TEXCOORD_0": 23
          },
          "indices": 24,
          "material": 0,
          "mode": 4
        }
      ]
    },
    {
      "primitives": [
        {
          "attributes": {
            "NORMAL": 26,
            "POSITION": 25,
            "TANGENT": 27,
            "TEXCOORD_0": 28
          },
          "indices": 29,
          "material": 0,
          "mode": 4
        }
      ]
    },
    {
      "primitives": [
        {
          "attributes": {
            "NORMAL": 31,
            "POSITION": 30,
            "TANGENT": 32,
            "TEXCOORD_0": 33
          },
          "indices": 34,
          "material": 0,
          "mode": 4
        }
      ]
    },
    {
      "primitives": [
        {
          "attributes": {
            "NORMAL": 36,
            "POSITION": 35,
            "TANGENT": 37,
            "TEXCOORD_0": 38
          },
          "indices": 39,
          "material": 0,
          "mode": 4
        }
      ]
    },
    {
      "primitives": [
        {
          "attributes": {
            "NORMAL": 41,
            "POSITION": 40,
            "TANGENT": 42,
            "TEXCOORD_0": 43
          },
          "indices": 44,
          "material": 0,
          "mode": 4
        }
      ]
    },
    {
      "primitives": [
        {
          "attributes": {
            "NORMAL": 46,
            "POSITION": 45,
            "TANGENT": 47,
            "TEXCOORD_0": 48
          },
          "indices": 49,
          "material": 0,
          "mode": 4
        }
      ]
    },
    {
      "primitives": [
        {
          "attributes": {
            "NORMAL": 51,
            "POSITION": 50,
            "TANGENT": 52,
            "TEXCOORD_0": 53
          },
          "indices": 54,
          "material": 0,
          "mode": 4
        }
      ]
    }
  ],
  "nodes": [
    {
      "children": [
        1
      ],
      "name": "RootNode (gltf orientation matrix)",
      "rotation": [
        -0.70710678118654746,
        -0,
        -0,
        0.70710678118654757
      ]
    },
    {
      "children": [
        2
      ],
      "matrix": [
        0,
        0,
        -1,
        0,
        0.97729486227035522,
        -0.2118837833404541,
        0,
        0,
        -0.2118837833404541,
        -0.97729486227035522,
        0,
        0,
        14.624357223510742,
        -19.2939453125,
        -0.93478721380233765,
        1
      ],
      "name": "RootNode (model correction matrix)"
    },
    {
      "children": [
        3,
        4,
        5,
        6,
        7,
        8,
        9,
        10,
        11,
        12,
        13
      ],
      "matrix": [
        1,
        0,
        0,
        0,
        0,
        1,
        0,
        0,
        0,
        0,
        1,
        0,
        -11.346532821655273,
        -22.626976013183594,
        -4.502051830291748,
        1
      ],
      "name": "antinous.obj.cleaner.gles"
    },
    {
      "mesh": 0,
      "name": ""
    },
    {
      "mesh": 1,
      "name": ""
    },
    {
      "mesh": 2,
      "name": ""
    },
    {
      "mesh": 3,
      "name": ""
    },
    {
      "mesh": 4,
      "name": ""
    },
    {
      "mesh": 5,
      "name": ""
    },
    {
      "mesh": 6,
      "name": ""
    },
    {
      "mesh": 7,
      "name": ""
    },
    {
      "mesh": 8,
      "name": ""
    },
    {
      "mesh": 9,
      "name": ""
    },
    {
      "mesh": 10,
      "name": ""
    }
  ],
  "samplers": [
    {
      "magFilter": 9729,
      "minFilter": 9987,
      "wrapS": 10497,
      "wrapT": 10497
    }
  ],
  "scene": 0,
  "scenes": [
    {
      "name": "OSG_Scene",
      "nodes": [
        0
      ]
    }
  ],
  "textures": [
    {
      "sampler": 0,
      "source": 0
    }
  ]
}

