{
  "accessors": [
    {
      "bufferView": 2,
      "componentType": 5126,
      "count": 65532,
      "max": [
        9.075987815856934,
        6.676959991455078,
        9.718512535095215
      ],
      "min": [
        -10.436397552490234,
        -9.85027027130127,
        -10.341155052185059
      ],
      "type": "VEC3"
    },
    {
      "bufferView": 2,
      "byteOffset": 786384,
      "componentType": 5126,
      "count": 65532,
      "max": [
        0.9999988675117493,
        0.8088491559028625,
        0.99983811378479
      ],
      "min": [
        -0.9999737739562988,
        -0.9999991059303284,
        -0.9997064471244812
      ],
      "type": "VEC3"
    },
    {
      "bufferView": 1,
      "componentType": 5126,
      "count": 65532,
      "max": [
        0.999629020690918,
        0.9995250105857849
      ],
      "min": [
        1.2999999853491317e-05,
        0.0901850014925003
      ],
      "type": "VEC2"
    },
    {
      "bufferView": 0,
      "componentType": 5125,
      "count": 257883,
      "type": "SCALAR"
    },
    {
      "bufferView": 2,
      "byteOffset": 1572768,
      "componentType": 5126,
      "count": 65532,
      "max": [
        10.318304061889648,
        6.655309200286865,
        9.727520942687988
      ],
      "min": [
        -9.963653564453125,
        -9.750237464904785,
        -10.084851264953613
      ],
      "type": "VEC3"
    },
    {
      "bufferView": 2,
      "byteOffset": 2359152,
      "componentType": 5126,
      "count": 65532,
      "max": [
        0.9999993443489075,
        0.8508228659629822,
        0.9999738931655884
      ],
      "min": [
        -0.9997442364692688,
        -0.9999866485595703,
        -0.9998639822006226
      ],
      "type": "VEC3"
    },
    {
      "bufferView": 1,
      "byteOffset": 524256,
      "componentType": 5126,
      "count": 65532,
      "max": [
        0.999754011631012,
        0.8669469952583313
      ],
      "min": [
        0.00024399999529123306,
        0.0374240018427372
      ],
      "type": "VEC2"
    },
    {
      "bufferView": 0,
      "byteOffset": 1031532,
      "componentType": 5125,
      "count": 244314,
      "type": "SCALAR"
    },
    {
      "bufferView": 2,
      "byteOffset": 3145536,
      "componentType": 5126,
      "count": 65533,
      "max": [
        10.167222023010254,
        13.03180980682373,
        9.728215217590332
      ],
      "min": [
        -9.440166473388672,
        -9.752653121948242,
        -10.072382926940918
      ],
      "type": "VEC3"
    },
    {
      "bufferView": 2,
      "byteOffset": 3931932,
      "componentType": 5126,
      "count": 65533,
      "max": [
        0.9998858571052551,
        0.9999832510948181,
        0.9999935030937195
      ],
      "min": [
        -0.9780977368354797,
        -0.9999943375587463,
        -0.9998908638954163
      ],
      "type": "VEC3"
    },
    {
      "bufferView": 1,
      "byteOffset": 1048512,
      "componentType": 5126,
      "count": 65533,
      "max": [
        0.9997529983520508,
        0.8684809803962708
      ],
      "min": [
        0.00024399999529123306,
        9.200000204145908e-05
      ],
      "type": "VEC2"
    },
    {
      "bufferView": 0,
      "byteOffset": 2008788,
      "componentType": 5125,
      "count": 211179,
      "type": "SCALAR"
    },
    {
      "bufferView": 2,
      "byteOffset": 4718328,
      "componentType": 5126,
      "count": 6877,
      "max": [
        8.96922779083252,
        6.613585948944092,
        9.659252166748047
      ],
      "min": [
        -10.082983016967773,
        -9.458998680114746,
        2.455590009689331
      ],
      "type": "VEC3"
    },
    {
      "bufferView": 2,
      "byteOffset": 4800852,
      "componentType": 5126,
      "count": 6877,
      "max": [
        0.9994787573814392,
        0.7414081692695618,
        0.9917762279510498
      ],
      "min": [
        -0.9140831232070923,
        -0.9999391436576843,
        -0.7287665605545044
      ],
      "type": "VEC3"
    },
    {
      "bufferView": 1,
      "byteOffset": 1572776,
      "componentType": 5126,
      "count": 6877,
      "max": [
        0.9995059967041016,
        0.7876420021057129
      ],
      "min": [
        0.0004030000127386302,
        0.09905499964952469
      ],
      "type": "VEC2"
    },
    {
      "bufferView": 0,
      "byteOffset": 2853504,
      "componentType": 5125,
      "count": 14652,
      "type": "SCALAR"
    }
  ],
  "asset": {
    "extras": {
      "author": "T.Koeniger (https://sketchfab.com/3D-hannover)",
      "license": "CC-BY-4.0 (http://creativecommons.org/licenses/by/4.0/)",
      "source": "https://sketchfab.com/3d-models/buddha-four-faces-18405445c05e48fabbc915d69ae2ccc2",
      "title": "Buddha - Four Faces"
    },
    "generator": "Sketchfab-12.65.0",
    "version": "2.0"
  },
  "bufferViews": [
    {
      "buffer": 0,
      "byteLength": 2912112,
      "name": "floatBufferViews",
      "target": 34963
    },
    {
      "buffer": 0,
      "byteLength": 1627792,
      "byteOffset": 2912112,
      "byteStride": 8,
      "name": "floatBufferViews",
      "target": 34962
    },
    {
      "buffer": 0,
      "byteLength": 4883376,
      "byteOffset": 4539904,
      "byteStride": 12,
      "name": "floatBufferViews",
      "target": 34962
    }
  ],
  "buffers": [
    {
      "byteLength": 9423280,
      "uri": "scene.bin"
    }
  ],
  "images": [
    {
      "uri": "textures/material_0_baseColor.png"
    }
  ],
  "materials": [
    {
      "doubleSided": true,
      "name": "material_0",
      "pbrMetallicRoughness": {
        "baseColorTexture": {
          "index": 0
        },
        "metallicFactor": 0.0
      }
    }
  ],
  "meshes": [
    {
      "name": "Object_0",
      "primitives": [
        {
          "attributes": {
            "NORMAL": 1,
            "POSITION": 0,
            "TEXCOORD_0": 2
          },
          "indices": 3,
          "material": 0,
          "mode": 4
        }
      ]
    },
    {
      "name": "Object_1",
      "primitives": [
        {
          "attributes": {
            "NORMAL": 5,
            "POSITION": 4,
            "TEXCOORD_0": 6
          },
          "indices": 7,
          "material": 0,
          "mode": 4
        }
      ]
    },
    {
      "name": "Object_2",
      "primitives": [
        {
          "attributes": {
            "NORMAL": 9,
            "POSITION": 8,
            "TEXCOORD_0": 10
          },
          "indices": 11,
          "material": 0,
          "mode": 4
        }
      ]
    },
    {
      "name": "Object_3",
      "primitives": [
        {
          "attributes": {
            "NORMAL": 13,
            "POSITION": 12,
            "TEXCOORD_0": 14
          },
          "indices": 15,
          "material": 0,
          "mode": 4
        }
      ]
    }
  ],
  "nodes": [
    {
      "children": [
        1
      ],
      "matrix": [
        1.0,
        0.0,
        0.0,
        0.0,
        0.0,
        1.0,
        7.519716018600242e-05,
        0.0,
        0.0,
        -7.519716018600242e-05,
        1.0,
        0.0,
        0.0,
        -1.897302746772766,
        -1.2843612432479863,
        1.0
      ],
      "name": "Sketchfab_model"
    },
    {
      "children": [
        2,
        3,
        4,
        5
      ],
      "name": "For_faces_flat_white_Modell_2.obj.cleaner.materialmerger.gles"
    },
    {
      "mesh": 0,
      "name": "Object_2"
    },
    {
      "mesh": 1,
      "name": "Object_3"
    },
    {
      "mesh": 2,
      "name": "Object_4"
    },
    {
      "mesh": 3,
      "name": "Object_5"
    }
  ],
  "samplers": [
    {
      "magFilter": 9729,
      "minFilter": 9987,
      "wrapS": 10497,
      "wrapT": 10497
    }
  ],
  "scene": 0,
  "scenes": [
    {
      "name": "Sketchfab_Scene",
      "nodes": [
        0
      ]
    }
  ],
  "textures": [
    {
      "sampler": 0,
      "source": 0
    }
  ]
}
